<?xml version="1.0" encoding="utf-8"?>
<!-- Generator: Adobe Illustrator 24.2.1, SVG Export Plug-In . SVG Version: 6.00 Build 0)  -->
<svg version="1.1" id="图层_1" xmlns="http://www.w3.org/2000/svg" xmlns:xlink="http://www.w3.org/1999/xlink" x="0px" y="0px"
	 viewBox="0 0 274.4 282.2" style="enable-background:new 0 0 274.4 282.2;" xml:space="preserve">
<style type="text/css">
	.st0{fill:#036140;}
</style>
<path class="st0" d="M156.9,137.1l69.3-69.3c3.7-3.7,3.7-9.7,0-13.4l0,0c-3.7-3.7-9.7-3.7-13.4,0l-69.3,69.3
	c-3.7,3.7-3.7,9.7,0,13.4l0,0C147.1,140.8,153.2,140.8,156.9,137.1z"/>
<path class="st0" d="M57.9,176.1l69.3-69.3c3.7-3.7,3.7-9.7,0-13.4l0,0c-3.7-3.7-9.7-3.7-13.4,0l-69.3,69.3c-3.7,3.7-3.7,9.7,0,13.4
	l0,0C48.1,179.8,54.2,179.8,57.9,176.1z"/>
<path class="st0" d="M157.7,138.1L157.7,138.1c-4.2,4.2-11,4.2-15.1,0L113.5,109c-4.2-4.2-4.2-11,0-15.1l0,0c4.2-4.2,11-4.2,15.1,0
	l29.1,29.1C161.9,127.1,161.9,133.9,157.7,138.1z"/>
<path class="st0" d="M235.8,220.2h-178c-5.8,0-10.5-4.7-10.5-10.5v0c0-5.8,4.7-10.5,10.5-10.5h178c5.8,0,10.5,4.7,10.5,10.5v0
	C246.3,215.5,241.6,220.2,235.8,220.2z"/>
</svg>
